<?xml version="1.0" encoding="utf-8"?>
<!-- Generator: Adobe Illustrator 20.1.0, SVG Export Plug-In . SVG Version: 6.00 Build 0)  -->
<svg version="1.1" id="Layer_1" xmlns="http://www.w3.org/2000/svg" xmlns:xlink="http://www.w3.org/1999/xlink" x="0px" y="0px"
	 width="2459.4px" height="480px" viewBox="0 0 2459.4 480" enable-background="new 0 0 2459.4 480" xml:space="preserve">
<g>
	<defs>
		<rect id="SVGID_1_" x="0" y="0" width="2459.4" height="480"/>
	</defs>
	<clipPath id="SVGID_2_">
		<use xlink:href="#SVGID_1_"  overflow="visible"/>
	</clipPath>
	<path clip-path="url(#SVGID_2_)" fill="#FFFFFF" d="M276.1,130.9h192.1v28.3H331.9v63.2H461v28.3H331.9v71.2H472v28.3H276.1V130.9z
		 M616.8,321.9h-1c-7.1,11.4-25.6,31.7-67.1,31.7c-33.4,0-61.5-15.2-61.5-49.9V198.9h52.9v86.4c0,30.8,4.8,35.3,23.3,35.3
		c35.3,0,53.4-32.1,53.4-56.3v-65.5h52.9v151.3h-52.9V321.9z M700.6,130.9h52.9v125.8l73.4-57.8h63.4l-84,65.5l91.5,85.8h-63.4
		l-80.1-76.3h-1v76.3h-52.9V130.9z M1012.9,332.7h-1c-7.1,9.8-22.9,21-59.1,21c-38.1,0-66.7-15.2-66.7-39.7
		c0-50.2,95.3-50.5,126.8-51.2v-14.9c0-14.9-5.8-27.6-32-27.6c-29,0-34.8,13-34.8,23.2h-51.5c0-29,28.7-48,86.3-48
		c56.3,0,82.5,16.2,82.5,47v107.8h-50.5V332.7z M965.7,328.8c34.3,0,47.2-24.7,47.2-45.4c-34.4,0-75.4,6.9-75.4,27.3
		C937.5,322.5,947.6,328.8,965.7,328.8 M1093.4,198.9h52.9v28.3h0.9c7.2-11.5,25.3-31.8,67.3-31.8c33.4,0,61.5,15.3,61.5,49.8v104.9
		h-52.9v-86.5c0-30.8-4.7-35.3-23.3-35.3c-35.7,0-53.4,32.4-53.4,56.3v65.4h-52.9V198.9z M1436.6,321.9h-0.9
		c-7.1,11.4-25.7,31.7-67.2,31.7c-33.4,0-61.5-15.2-61.5-49.9V198.9h52.9v86.4c0,30.8,4.8,35.3,23.4,35.3
		c35.3,0,53.4-32.1,53.4-56.3v-65.5h52.9v151.3h-52.9V321.9z M1569.5,217h0.9c7.2-7.6,23.8-21.6,58.7-21.6
		c54.3,0,78.2,30.8,78.2,79.1c0,42.2-21.9,79.1-95.8,79.1c-59.6,0-94.9-22.5-94.9-67.7V130.9h52.9V217z M1611.4,328.8
		c33.9,0,39.6-29.5,39.6-54.3c0-27.3-4.3-56.6-39.6-56.6c-31.9,0-41.9,31.2-41.9,56.6C1569.5,312.3,1578.1,328.8,1611.4,328.8
		 M1841.7,332.7h-0.9c-7.2,9.8-22.9,21-59.1,21c-38.1,0-66.7-15.2-66.7-39.7c0-50.2,95.3-50.5,126.8-51.2v-14.9
		c0-14.9-5.7-27.6-31.9-27.6c-29.1,0-34.8,13-34.8,23.2h-51.5c0-29,28.6-48,86.3-48c56.3,0,82.4,16.2,82.4,47v107.8h-50.5V332.7z
		 M1794.5,328.8c34.3,0,47.2-24.7,47.2-45.4c-34.3,0-75.3,6.9-75.3,27.3C1766.4,322.5,1776.4,328.8,1794.5,328.8"/>
	<polygon clip-path="url(#SVGID_2_)" fill="#FFFFFF" points="1920.7,200.7 1910.9,200.7 1910.9,195.6 1935.9,195.6 1935.9,200.7 
		1926.1,200.7 1926.1,226.7 1920.7,226.7 	"/>
	<polygon clip-path="url(#SVGID_2_)" fill="#FFFFFF" points="1943.8,195.6 1949.6,195.6 1959,210.3 1968.3,195.6 1974.1,195.6 
		1974.1,226.7 1968.7,226.7 1968.7,204.4 1959,219.1 1958.8,219.1 1949.2,204.5 1949.2,226.7 1943.8,226.7 	"/>
</g>
</svg>
